                                                                                                  
_________________________  Visit us at _________________________
  
http://p2pdl.com  ____________________________  http://p2pdl.com


 
http://www.shotpix.com/images/21486112664117797944.jpg


Taylor Swift - I Knew You Were Trouble {M4A+MP4} (1080p) x264 [VX] [P2PDL]


                             1080p Full HD MP4 Video
                                       +
                             128 Kbps/VBR M4A Audio

General
Format                         : MPEG-4
Format profile                 : Base Media / Version 2
Codec ID                       : mp42
File size                      : 50.4 MiB
Duration                       : 5mn 57s

Video
ID                             : 1
Format                         : AVC
Width                          : 1 920 pixels
Height                         : 1 080 pixels
Display aspect ratio           : 16:9
Frame rate mode                : Variable
Frame rate                     : 23.976 fps
Color space                    : YUV
Scan type                      : Progressive
Bits/(Pixel*Frame)             : 0.021
Stream size                    : 44.8 MiB (89%)
Writing library                : x264 core 128

Audio
ID                             : 2
Format                         : AAC
Format/Info                    : Advanced Audio Codec
Format profile                 : LC
Codec ID                       : 40
Duration                       : 5mn 57s
Bit rate mode                  : Variable
Bit rate                       : 127 Kbps
Maximum bit rate               : 256 Kbps
Channel(s)                     : 2 channels
Channel positions              : Front: L R
Sampling rate                  : 48.0 KHz
Stream size                    : 5.39 MiB (11%)

Subtitles                      : No

Screens:
 
http://www.shotpix.com/images/68981909880515718334.jpg 
http://www.shotpix.com/images/85891495204822321830.jpg

Thumbs:
 
http://www.shotpix.com/images/74241184397036993906.jpg

------------------------------------------------------------------------

Notes:

* Recommended to use latest version VLC Media Player.
* Install shark007 codecs in case of any kind of problem in playback (For non-VLC Media Player users).
* Alternatively, install Core AVC codecs, the fastest decoder that there is coupled with Community Center Codec Pack and play on Windows Media Player Classic.

Greets to: VYTO, a2zRG, Stumpie1971, Sheychi, Caveman, Ash968, Neon, Masta and staff members at ExtraTorrent, TPB,KAT, 1337x, PublicHD, Ahashare, TorrentMafia, Limetorrents, BTScene, P2PDL, and all others

Encoder Notes: Looking For Early Access To Anything You Can Provide DVDScr, R5, DVDRips, BluRay, Direct Audio, Early Music
Releases, Seedboxes, Links, Dedicated Servers anything u can provide, Advance / Promo CDs/DVDs. If You Got anything to
offer contact me at "prg@hush.com"

Facebook Fan Page: www . facebook . com / p2pdl